<svg version="1.2" xmlns="http://www.w3.org/2000/svg" viewBox="0 0 922 222" width="922" height="222"><style>.a{fill:#c6c9c8}.b{fill:#fefefe}.c{fill:#226b97}.d{fill:#006ca4}</style><path class="a" d="m2.4 110.5c0-61.5 49.9-111.4 111.5-111.4 61.6 0 111.5 49.9 111.5 111.4 0 61.6-49.9 111.5-111.5 111.5-61.6 0-111.5-49.9-111.5-111.5z"/><path class="b" d="m19.2 110.5c0-52.3 42.4-94.7 94.7-94.7 52.3 0 94.7 42.4 94.7 94.7 0 52.3-42.4 94.7-94.7 94.7-52.3 0-94.7-42.4-94.7-94.7z"/><path fill-rule="evenodd" d="m281.4 68.6h51.5c18.7 0 24 7.9 17 22.4-4 8.4-11.1 15.8-25.4 18.8l-0.1 0.3c12.5 1.8 13.3 11 8.8 20.2-7.1 14.9-23.5 24.9-45.1 24.9h-48.4zm23.3 18.4l-8 16.5h4.6c7.9 0 12.2-3.6 14.6-8.7 2.8-5.7 0-7.8-6.8-7.8zm-23.9 49.7h4.8c8.4 0 13.1-2.7 16.1-9.1 2.6-5.3-0.3-7.8-8.3-7.8h-4.5z"/><path fill-rule="evenodd" d="m372.3 68.6h51.3c18.6 0 26.8 5.6 18.9 21.9-4.8 10-12.6 17.5-27.1 20.6l-0.1 0.3c8 0.7 10.8 4.4 9.3 11-1.6 7.5-7.8 19.7-10.1 32.8h-33.6c1.1-6.5 5.3-17.4 7.6-24.9 1.4-4.3 0-6-5.5-6h-3.9l-14.9 30.9h-33.6zm19.1 36.1c6.6 0 12.5-2.3 15.6-8.8 3.1-6.3-0.7-7.7-7.4-7.7h-3.1l-8 16.5z"/><path  d="m463.3 68.6h65.8l-10.8 22.5h-33l-4.5 9.2h30.5l-10.9 22.6h-30.4l-4.7 9.7h34.1l-10.9 22.6h-66.9z"/><path  d="m538.8 68.6h41.2l-6.9 52.4h0.2l25.3-52.4h27.8l-41.7 86.6h-41.1l7-52.8h-0.2l-25.4 52.8h-27.9z"/><path  d="m638.6 68.6h41.2l-6.9 52.4h0.2l25.3-52.4h27.8l-41.7 86.6h-41.1l7-52.8h-0.2l-25.4 52.8h-27.9z"/><path fill-rule="evenodd" d="m757.7 68.6h44.6l-13.9 86.6h-35.5l3.3-13.9h-24.8l-10.2 13.9h-32.9zm3.6 51.6l8.9-32.7h-0.2l-23.3 32.7z"/><path  d="m833.9 68.6h41.2l-6.9 52.4h0.2l25.3-52.4h27.8l-41.7 86.6h-41.1l7-52.8h-0.2l-25.4 52.8h-27.9z"/><path fill-rule="evenodd" class="c" d="m235.1 59.3c0 3.4-2.8 6.1-6.1 6.1-3.4 0-6.1-2.7-6.1-6.1 0-3.4 2.7-6.1 6.1-6.1 3.3 0 6.1 2.7 6.1 6.1zm-11.3 0c0 2.9 2.3 5.2 5.2 5.2 2.9 0 5.1-2.3 5.1-5.2 0-2.8-2.2-5.2-5.1-5.2-2.9 0-5.2 2.4-5.2 5.2zm8.2 3.4h-1l-1.9-3.1h-1.5v3.1h-0.9v-6.8h3c0.6 0 1.1 0 1.6 0.3 0.5 0.3 0.8 1 0.8 1.5 0 1.4-0.9 1.9-2.1 1.9zm-3.2-3.8c0.9 0 2.4 0.1 2.4-1.3 0-1-0.9-1.1-1.7-1.1h-2v2.4z"/><path class="d" d="m0 155.5l59.6-121.2h47.5l-59.6 121.2z"/><path class="d" d="m94.4 155.5c-6.9 0-36.4 0-36.4 0l37.5-76.5h14.4c6.9 0 26.7-2.2 25.9 15.7-0.5 13.3-7.7 23.5-10.5 30.1-6.6 11.6-14.6 30.7-30.9 30.7z"/><path class="d" d="m103.8 193l46.4-94.4h47.5l-46.4 94.4z"/><path class="d" d="m156 87.6l17.6-36.2h47.5l-17.9 36.2z"/></svg>